<svg width="18" height="18" viewBox="0 0 18 18" fill="none" xmlns="http://www.w3.org/2000/svg">
<g clip-path="url(#clip0_2104_267)">
<path d="M0 2.09067C0 1.4846 0.202708 0.984598 0.608108 0.590672C1.01351 0.196727 1.54055 -0.000236511 2.18919 -0.000236511C2.82626 -0.000236511 3.34169 0.19369 3.73552 0.581581C4.14092 0.98158 4.34363 1.50278 4.34363 2.14521C4.34363 2.72703 4.14672 3.21187 3.7529 3.59976C3.3475 3.99976 2.81467 4.19976 2.15444 4.19976H2.13707C1.49999 4.19976 0.984562 3.99976 0.590734 3.59976C0.196905 3.19976 0 2.69672 0 2.09067ZM0.225869 17.9997V5.8543H4.08301V17.9997H0.225869ZM6.22008 17.9997H10.0772V11.2179C10.0772 10.7937 10.1236 10.4664 10.2162 10.2361C10.3784 9.82398 10.6245 9.47549 10.9546 9.19066C11.2847 8.9058 11.6988 8.76338 12.1969 8.76338C13.4942 8.76338 14.1429 9.67853 14.1429 11.5088V17.9997H18V11.0361C18 9.24217 17.5946 7.88157 16.7838 6.9543C15.973 6.02703 14.9016 5.56339 13.5695 5.56339C12.0753 5.56339 10.9112 6.23612 10.0772 7.58157V7.61793H10.0598L10.0772 7.58157V5.8543H6.22008C6.24324 6.24217 6.25483 7.44822 6.25483 9.47248C6.25483 11.4967 6.24324 14.3391 6.22008 17.9997Z" fill="white"/>
</g>
<defs>
<clipPath id="clip0_2104_267">
<rect width="18" height="18" fill="white"/>
</clipPath>
</defs>
</svg>
