<svg width="56" height="56" viewBox="0 0 56 56" fill="none" xmlns="http://www.w3.org/2000/svg">
<rect width="56" height="56" rx="28" fill="#A35C6A"/>
<path d="M39.4769 33.5339L35.4324 29.6277L31.3634 16.6658C31.2477 16.2967 31.0396 15.9609 30.7574 15.688C30.4752 15.4151 30.1277 15.2137 29.7456 15.1015C29.3635 14.9893 28.9587 14.9698 28.5669 15.0447C28.1752 15.1197 27.8086 15.2867 27.4997 15.5312C27.1908 15.2867 26.8243 15.1197 26.4325 15.0447C26.0408 14.9698 25.6359 14.9893 25.2538 15.1015C24.8717 15.2137 24.5242 15.4151 24.242 15.688C23.9598 15.9609 23.7517 16.2967 23.6361 16.6658L19.567 29.6288L15.5226 33.5339C15.188 33.8572 15 34.2955 15 34.7526C15 35.2096 15.188 35.648 15.5226 35.9713L19.1709 39.4938C19.3367 39.6539 19.5335 39.781 19.7502 39.8676C19.9669 39.9543 20.1991 39.9989 20.4336 39.9989C20.6682 39.9989 20.9004 39.9543 21.1171 39.8676C21.3337 39.781 21.5306 39.6539 21.6964 39.4938L27.0846 34.2881C27.2339 34.1436 27.3727 33.9891 27.4997 33.8259C27.6268 33.9891 27.7655 34.1436 27.9149 34.2881L33.303 39.4949C33.4688 39.655 33.6657 39.7821 33.8824 39.8687C34.0991 39.9554 34.3313 40 34.5658 40C34.8003 40 35.0326 39.9554 35.2492 39.8687C35.4659 39.7821 35.6628 39.655 35.8286 39.4949L39.4769 35.9724C39.6427 35.8123 39.7743 35.6222 39.864 35.413C39.9538 35.2038 40 34.9796 40 34.7531C40 34.5267 39.9538 34.3024 39.864 34.0932C39.7743 33.884 39.6427 33.694 39.4769 33.5339ZM20.4331 38.2751L16.7859 34.7536L18.2022 33.3862L21.8504 36.9088L20.4331 38.2751ZM26.6069 31.2441C26.6087 31.5841 26.5406 31.9211 26.4065 32.2356C26.2724 32.55 26.075 32.8356 25.8257 33.0759L23.1115 35.689L19.4644 32.1675L20.9877 30.6956C21.0917 30.5952 21.1684 30.4716 21.2109 30.3357L25.3402 17.1658C25.3821 17.0193 25.4781 16.8926 25.61 16.8096C25.7419 16.7266 25.9007 16.6931 26.0565 16.7154C26.2122 16.7376 26.3542 16.8141 26.4556 16.9304C26.557 17.0468 26.6108 17.1949 26.6069 17.3468V31.2441ZM29.1738 33.0759C28.9245 32.8356 28.7271 32.55 28.593 32.2356C28.4589 31.9211 28.3908 31.5841 28.3925 31.2441V17.3436C28.3926 17.1943 28.4482 17.05 28.5492 16.9369C28.6502 16.8239 28.7899 16.7496 28.9428 16.7277C29.0958 16.7058 29.2518 16.7376 29.3825 16.8174C29.5131 16.8972 29.6098 17.0197 29.6548 17.1626L33.784 30.3324C33.8266 30.4683 33.9033 30.592 34.0072 30.6923L35.6244 32.2537L31.8968 35.7019L29.1738 33.0759ZM34.5664 38.2751L33.1646 36.9206L36.891 33.4724L38.2135 34.7536L34.5664 38.2751Z" fill="white"/>
</svg>
